<svg height="464pt" viewBox="-16 0 464 464" width="464pt" xmlns="http://www.w3.org/2000/svg">
    <path d="m279.144531 256c-4.292969 0-8.539062.863281-12.488281 2.535156l-50.65625 21.464844-50.136719-21.425781c-3.972656-1.699219-8.253906-2.574219-12.574219-2.574219h-121.289062v-232h-32v264h153.433594c4.332031 0 8.621094.878906 12.605468 2.585938l49.960938 21.414062 49.960938-21.414062c3.984374-1.707032 8.273437-2.585938 12.605468-2.585938h153.433594v-264h-32v232zm0 0" fill="#21409a"/><path d="m168 0h-136v256h121.289062c4.320313 0 8.601563.875 12.574219 2.574219l50.136719 21.425781v-232c0-26.507812-21.492188-48-48-48zm0 0" fill="#d1e7f8"/>
    <path d="m264 0c-26.507812 0-48 21.492188-48 48v232l50.65625-21.464844c3.949219-1.671875 8.195312-2.535156 12.488281-2.535156h120.855469v-256zm0 0" fill="#d9ebf9"/>
    <path d="m392 368h-32c-8.835938 0-16 7.164062-16 16v64c0 8.835938 7.164062 16 16 16h32c8.835938 0 16-7.164062 16-16v-64c0-8.835938-7.164062-16-16-16zm0 0" fill="#d80027"/><path d="m285.527344 256h114.472656v-144c0 67.054688-47.929688 123.785156-114.472656 144zm0 0" fill="#bcd0df"/><path d="m368 384h16v16h-16zm0 0" fill="#f1f2f2"/><path d="m384 368h-16v-16c0-4.417969-3.582031-8-8-8h-312c-13.253906 0-24-10.746094-24-24v-32h16v32c0 4.417969 3.582031 8 8 8h312c13.253906 0 24 10.746094 24 24zm0 0" fill="#2488ff"/></svg>
